<svg xmlns="http://www.w3.org/2000/svg" viewBox="0 0 333.45 333.45"><defs><style>.cls-1{fill:#fff;}.cls-2{fill:none;stroke:#fff;stroke-miterlimit:10;stroke-width:3.49px;}.cls-3{fill:#231f20;}</style></defs><g id="Layer_2" data-name="Layer 2"><g id="Layer_1-2" data-name="Layer 1"><path class="cls-1" d="M285.55,166.72a14.85,14.85,0,0,1-14.86,14.85l-29.33.39a59.08,59.08,0,0,0-23.2,4.71c-1.07.45-2.13.94-3.16,1.45-1.76.87-3.46,1.83-5.12,2.86A59.53,59.53,0,0,0,191,209.9c-1,1.64-2,3.33-2.84,5.07q-.78,1.58-1.47,3.18A59.24,59.24,0,0,0,182,241.37l-.37,29.32a14.86,14.86,0,0,1-29.71,0q-.19-14.65-.38-29.32a59.52,59.52,0,0,0-2.37-16.66,58.52,58.52,0,0,0-2.34-6.55c-.46-1.08-.95-2.14-1.47-3.19-.87-1.74-1.82-3.44-2.84-5.08A59.63,59.63,0,0,0,123.55,191a56.43,56.43,0,0,0-5.1-2.86c-1-.52-2.09-1-3.16-1.45A59.06,59.06,0,0,0,92.07,182q-14.65-.21-29.32-.39a14.85,14.85,0,0,1,0-29.7l29.32-.38a59.24,59.24,0,0,0,23.22-4.71c1.07-.45,2.12-.93,3.16-1.45,1.75-.88,3.46-1.83,5.1-2.86a59.5,59.5,0,0,0,18.91-18.91,56.09,56.09,0,0,0,2.84-5.09c.53-1,1-2.11,1.48-3.18a59.23,59.23,0,0,0,4.71-23.21q.18-14.67.38-29.32a14.86,14.86,0,1,1,29.71,0L182,92.08a59.4,59.4,0,0,0,2.37,16.65,60,60,0,0,0,2.34,6.56q.69,1.62,1.47,3.18,1.31,2.63,2.84,5.08a59.5,59.5,0,0,0,18.91,18.91,58.18,58.18,0,0,0,5.12,2.86c1,.53,2.09,1,3.16,1.46a59.18,59.18,0,0,0,23.2,4.71l29.33.38A14.85,14.85,0,0,1,285.55,166.72Z"/><circle class="cls-2" cx="61.16" cy="166.72" r="59.41"/><circle class="cls-2" cx="166.72" cy="61.16" r="59.41"/><circle class="cls-2" cx="272.29" cy="166.72" r="59.41"/><circle class="cls-2" cx="166.72" cy="272.29" r="59.41"/><path class="cls-3" d="M118.45,145.33c-1,.52-2.09,1-3.16,1.45a58.11,58.11,0,0,1,0,39.89c1.07.45,2.12.93,3.16,1.45A61.52,61.52,0,0,0,118.45,145.33Z"/><path class="cls-3" d="M186.66,115.29a58.08,58.08,0,0,1-39.88,0c-.46,1.07-.95,2.13-1.48,3.18a61.48,61.48,0,0,0,42.83,0Q187.35,116.91,186.66,115.29Z"/><path class="cls-3" d="M218.16,146.78c-1.07-.45-2.13-.93-3.16-1.46a61.55,61.55,0,0,0,0,42.8c1-.51,2.09-1,3.16-1.45a58,58,0,0,1,0-39.89Z"/><path class="cls-3" d="M166.72,211.13A61.21,61.21,0,0,0,145.31,215c.52,1.05,1,2.11,1.47,3.19a58.16,58.16,0,0,1,39.88,0q.69-1.6,1.47-3.18A61.17,61.17,0,0,0,166.72,211.13Z"/></g></g></svg>