<svg xmlns="http://www.w3.org/2000/svg" viewBox="0 0 271.6 271.61"><defs><style>.cls-1{fill:#fff;}.cls-2{fill:none;stroke:#fff;stroke-miterlimit:10;stroke-width:3.49px;}.cls-3{fill:#231f20;}</style></defs><g id="Layer_2" data-name="Layer 2"><g id="Layer_1-2" data-name="Layer 1"><g id="Layer_2-2" data-name="Layer 2"><g id="Layer_1-2-2" data-name="Layer 1-2"><path class="cls-1" d="M219.82,51.78a14.85,14.85,0,0,1,0,21h0l-20.47,21a59.07,59.07,0,0,0-13.07,19.74c-.44,1.07-.84,2.17-1.21,3.26-.63,1.86-1.15,3.74-1.6,5.64a59.42,59.42,0,0,0,0,26.73,57.3,57.3,0,0,0,1.58,5.59c.37,1.11.78,2.21,1.2,3.29a59.44,59.44,0,0,0,13.11,19.74l20.47,21a14.86,14.86,0,0,1-21,21l-21-20.47a59.81,59.81,0,0,0-13.46-10.1,58.13,58.13,0,0,0-6.28-3c-1.09-.44-2.19-.84-3.3-1.21-1.84-.62-3.72-1.15-5.6-1.59a59.6,59.6,0,0,0-26.77.06,58.06,58.06,0,0,0-5.63,1.58c-1.07.34-2.18.77-3.26,1.21a59.11,59.11,0,0,0-19.73,13.1q-10.51,10.22-21,20.46a14.85,14.85,0,0,1-21-21l20.46-21A59.27,59.27,0,0,0,85.36,158.1c.44-1.08.84-2.16,1.21-3.26.61-1.86,1.15-3.74,1.58-5.63a59.47,59.47,0,0,0,0-26.74,54.32,54.32,0,0,0-1.59-5.61c-.33-1.08-.78-2.2-1.2-3.29A59.39,59.39,0,0,0,72.28,93.82l-20.47-21A14.86,14.86,0,0,1,72.28,51.27c.18.18.37.36.54.54l21,20.41a59.24,59.24,0,0,0,13.45,10.1,60.4,60.4,0,0,0,6.3,3c1.08.44,2.18.84,3.28,1.21q2.79.93,5.6,1.59a59.51,59.51,0,0,0,26.75,0c1.9-.44,3.79-1,5.64-1.6,1.08-.33,2.18-.77,3.27-1.2a59.31,59.31,0,0,0,19.73-13.08l21-20.47A14.85,14.85,0,0,1,219.82,51.78Z"/><circle class="cls-2" cx="61.16" cy="210.45" r="59.41"/><circle class="cls-2" cx="61.16" cy="61.16" r="59.41"/><circle class="cls-2" cx="210.45" cy="61.16" r="59.41"/><circle class="cls-2" cx="210.45" cy="210.45" r="59.41"/><path class="cls-3" d="M86.54,154.81c-.34,1.08-.77,2.19-1.21,3.26a58.09,58.09,0,0,1,28.21,28.21c1.07-.44,2.15-.84,3.26-1.21A61.54,61.54,0,0,0,86.54,154.81Z"/><path class="cls-3" d="M113.53,85.34a58.14,58.14,0,0,1-28.2,28.2c.43,1.08.84,2.18,1.2,3.29a61.48,61.48,0,0,0,30.29-30.28C115.72,86.18,114.62,85.78,113.53,85.34Z"/><path class="cls-3" d="M158.07,85.33c-1.07.44-2.16.85-3.27,1.2a61.58,61.58,0,0,0,30.27,30.27c.34-1.07.77-2.19,1.21-3.26A58,58,0,0,1,158.07,85.33Z"/><path class="cls-3" d="M167.2,167.21a61.1,61.1,0,0,0-12.4,17.87c1.11.38,2.2.79,3.29,1.22a58.14,58.14,0,0,1,28.2-28.2c-.43-1.08-.83-2.18-1.21-3.29A61.14,61.14,0,0,0,167.2,167.21Z"/></g></g></g></g></svg>