<svg xmlns="http://www.w3.org/2000/svg" viewBox="0 0 339.05 259.8"><defs><style>.cls-1,.cls-11,.cls-12,.cls-13,.cls-14,.cls-16,.cls-17,.cls-18,.cls-3,.cls-5,.cls-6,.cls-7,.cls-9{fill:none;}.cls-1,.cls-10,.cls-11,.cls-12,.cls-13,.cls-14,.cls-16,.cls-17,.cls-18,.cls-2,.cls-3,.cls-5,.cls-6,.cls-7,.cls-8,.cls-9{stroke:#231f20;stroke-miterlimit:10;}.cls-1{stroke-width:5px;}.cls-2,.cls-4,.cls-8{fill:#231f20;}.cls-3{stroke-width:4px;}.cls-6{stroke-width:2px;}.cls-7{stroke-width:3px;}.cls-10,.cls-8,.cls-9{stroke-width:7px;}.cls-10,.cls-15{fill:#fff;}.cls-11{stroke-width:1.5px;}.cls-12{stroke-width:1.23px;}.cls-13{stroke-width:0.5px;}.cls-14{stroke-width:2.53px;}.cls-16{stroke-width:1.51px;}.cls-17{stroke-width:2.42px;}.cls-18{stroke-width:0.99px;}</style></defs><g id="Layer_2" data-name="Layer 2"><g id="Layer_1-2" data-name="Layer 1"><rect class="cls-1" x="214.58" y="43.72" width="92.93" height="51.48" rx="20.69" transform="translate(62.55 -113.75) rotate(27.81)"/><path class="cls-2" d="M255.82,225a34.16,34.16,0,0,0,5.06-4.89,42.79,42.79,0,0,1,3.45-4.55c1.44-1.6,1.86-3.21,4.13-3s3.63.09,4.89,1.27,2.37,1.43,2.45,4.38.34,2.11,0,6-1.34,4-1.85,5.65-.76,6.32.92,5.81,3.12-1,5.4-4.46,3.69-5.15,3.82-8.27S284,212,279.85,208.68,274.11,204,271,203.2s-7.16.76-7.84.93-4.8,3.45-6.83,6.49-3.45,6.79-3.45,8.66,0,3.82.92,4.41S255.82,225,255.82,225Z"/><polygon class="cls-2" points="276.47 198.73 274.54 202.44 278.33 204.88 280.27 201.37 276.47 198.73"/><circle class="cls-3" cx="284.09" cy="187.42" r="10.14"/><polygon class="cls-4" points="282.04 172.25 281.62 174.79 287.48 174.58 287.48 170.77 285.01 170.77 282.04 172.25"/><path class="cls-5" d="M292,143a1.85,1.85,0,0,0-1.71,1.88,31.67,31.67,0,0,1-.39,5.59,23.76,23.76,0,0,1-2.71,6.41c-1.16,1.6-3.15,3.32-3.15,4.26s-.11,3,1.05,2.65a11.46,11.46,0,0,0,4.2-2.87c1.27-1.39,3.48-2.93,4-5.81a24.28,24.28,0,0,0,.77-6.25c-.05-2.38.61-4-.22-5A2.14,2.14,0,0,0,292,143Z"/><path class="cls-6" d="M289.92,139.65S278.58,162.34,278,165s-2.27,3.1,1,3.92a15.24,15.24,0,0,0,6.6,0,9.41,9.41,0,0,0,6.81-2.27c2.89-2.68,5-8.25,5-10.11,0-4.29,2.59-13.31-2.89-15.91A9.51,9.51,0,0,0,289.92,139.65Z"/><rect class="cls-7" x="271.33" y="134.8" width="8.9" height="30.2" rx="2.85" transform="translate(101.78 -111.34) rotate(27.81)"/><circle class="cls-7" cx="334.79" cy="58.97" r="2.75"/><circle class="cls-7" cx="321.57" cy="51.85" r="2.75"/><circle class="cls-4" cx="324.78" cy="61.75" r="5.53"/><circle class="cls-4" cx="314.16" cy="97.73" r="4.55"/><line class="cls-7" x1="312.6" y1="84.3" x2="321.71" y2="67.43"/><ellipse class="cls-4" cx="307.91" cy="93.82" rx="11.05" ry="5.58" transform="translate(81.28 322.41) rotate(-62.19)"/><rect class="cls-7" x="223.81" y="92.56" width="43.71" height="10.29" rx="5.15" transform="translate(73.95 -103.32) rotate(27.81)"/><rect class="cls-4" x="246.73" y="30.57" width="58.92" height="12.52" rx="6.26" transform="translate(49.08 -124.59) rotate(27.81)"/><circle class="cls-7" cx="227.37" cy="4.25" r="2.75"/><circle class="cls-7" cx="239.08" cy="10.83" r="2.75"/><line class="cls-7" x1="219.1" y1="34.98" x2="226.18" y2="20.54"/><circle class="cls-4" cx="229.23" cy="15.19" r="5.53"/><ellipse class="cls-8" cx="214.07" cy="44.33" rx="7.98" ry="4.03" transform="translate(78.31 215.68) rotate(-63.31)"/><rect class="cls-9" x="182.55" y="99.38" width="86.93" height="80.55" rx="20.12" transform="translate(91.25 -89.31) rotate(27.81)"/><circle class="cls-10" cx="125.71" cy="134.09" r="122.21"/><polyline class="cls-9" points="59.7 31.22 71.87 77.05 74.96 88.7 76.21 93.41 88.39 139.3 89.56 143.7 92.23 153.76 92.91 156.3 97.46 173.45 97.48 173.54 102.76 193.44 106.95 209.23 110.44 222.37 119.45 256.3"/><line class="cls-9" x1="195.12" y1="33.49" x2="119.45" y2="256.3"/><circle class="cls-4" cx="205.29" cy="40.47" r="4.55"/><circle class="cls-4" cx="193.69" cy="185.61" r="3.1"/><circle class="cls-4" cx="178.42" cy="183.07" r="3.1"/><circle class="cls-4" cx="172.97" cy="193.98" r="3.1"/><circle class="cls-4" cx="189.35" cy="196.6" r="3.1"/><circle class="cls-4" cx="206.95" cy="204.51" r="3.1"/><circle class="cls-4" cx="219.77" cy="199.18" r="3.1"/><circle class="cls-4" cx="158.44" cy="215.4" r="3.1"/><circle class="cls-4" cx="170.76" cy="225.22" r="3.1"/><circle class="cls-4" cx="154.58" cy="225.71" r="3.1"/><circle class="cls-4" cx="140.12" cy="239.28" r="3.1"/><circle class="cls-4" cx="130.52" cy="235.3" r="3.1"/><circle class="cls-4" cx="146.83" cy="200.74" r="3.1"/><circle class="cls-4" cx="196.29" cy="172.57" r="3.1"/><circle class="cls-4" cx="173.87" cy="149.87" r="3.1"/><circle class="cls-4" cx="198.76" cy="161.1" r="3.1"/><circle class="cls-4" cx="213.67" cy="163.05" r="3.1"/><circle class="cls-4" cx="203.86" cy="146.77" r="3.1"/><circle class="cls-4" cx="229.11" cy="150.42" r="3.1"/><circle class="cls-4" cx="225.71" cy="142.2" r="3.1"/><circle class="cls-4" cx="201.86" cy="132.44" r="3.1"/><circle class="cls-4" cx="191.58" cy="131.84" r="3.1"/><circle class="cls-4" cx="176.97" cy="125.64" r="3.1"/><circle class="cls-4" cx="186.46" cy="120.2" r="3.1"/><circle class="cls-4" cx="199.39" cy="117.11" r="3.1"/><circle class="cls-4" cx="216.77" cy="114.01" r="3.1"/><circle class="cls-4" cx="224.81" cy="108.81" r="3.1"/><circle class="cls-4" cx="209.3" cy="101.73" r="3.1"/><circle class="cls-4" cx="234.12" cy="91.62" r="3.1"/><circle class="cls-4" cx="203.83" cy="41.23" r="3.1"/><circle class="cls-4" cx="176.16" cy="101.73" r="3.1"/><line class="cls-11" x1="126.82" y1="243.79" x2="148.46" y2="252.89"/><line class="cls-11" x1="141.94" y1="239.77" x2="156.11" y2="245.61"/><line class="cls-11" x1="203.03" y1="225.71" x2="156.11" y2="245.61"/><line class="cls-11" x1="206" y1="218.5" x2="161.54" y2="237.28"/><line class="cls-11" x1="133.23" y1="225.71" x2="161.54" y2="237.28"/><line class="cls-11" x1="167.67" y1="202.28" x2="211.07" y2="220.15"/><line class="cls-11" x1="196.18" y1="214.01" x2="170.76" y2="225.22"/><line class="cls-11" x1="137.64" y1="205.98" x2="158.44" y2="215.4"/><line class="cls-11" x1="134.48" y1="216.79" x2="154.58" y2="225.71"/><line class="cls-11" x1="146.83" y1="200.74" x2="140.89" y2="199.7"/><line class="cls-11" x1="147.39" y1="178.5" x2="159.75" y2="204.51"/><line class="cls-11" x1="189.37" y1="217.02" x2="159.75" y2="204.51"/><line class="cls-11" x1="152.38" y1="162.8" x2="167.67" y2="202.28"/><line class="cls-11" x1="147.32" y1="174.22" x2="158.44" y2="178.46"/><line class="cls-11" x1="172.97" y1="193.98" x2="155.73" y2="152.36"/><line class="cls-11" x1="178.42" y1="183.07" x2="160.02" y2="140.77"/><line class="cls-11" x1="173.87" y1="149.87" x2="187.23" y2="180.99"/><line class="cls-11" x1="176.97" y1="206.11" x2="187.23" y2="180.99"/><line class="cls-11" x1="196.29" y1="172.57" x2="186.26" y2="148.16"/><line class="cls-11" x1="160.02" y1="137.91" x2="186.26" y2="148.16"/><line class="cls-11" x1="222.87" y1="211.21" x2="206.95" y2="204.51"/><line class="cls-11" x1="229.74" y1="202.28" x2="219.77" y2="199.18"/><line class="cls-11" x1="237.29" y1="184.18" x2="181.23" y2="207.86"/><line class="cls-11" x1="189.35" y1="196.6" x2="243.1" y2="173.8"/><line class="cls-11" x1="193.69" y1="185.61" x2="246.06" y2="163.05"/><line class="cls-11" x1="198.76" y1="161.1" x2="218" y2="152.97"/><line class="cls-11" x1="213.67" y1="163.05" x2="228.81" y2="157.04"/><line class="cls-11" x1="218" y1="152.97" x2="235.41" y2="159.95"/><line class="cls-11" x1="246.74" y1="153.96" x2="235.41" y2="159.95"/><line class="cls-11" x1="230.14" y1="129.34" x2="241.07" y2="152.97"/><line class="cls-11" x1="246.74" y1="153.96" x2="241.07" y2="152.97"/><line class="cls-11" x1="199.39" y1="117.11" x2="230.14" y2="129.34"/><line class="cls-11" x1="200.76" y1="132.44" x2="225.71" y2="142.2"/><line class="cls-11" x1="186.46" y1="120.2" x2="234.66" y2="139.1"/><line class="cls-11" x1="191.58" y1="131.84" x2="168.33" y2="141.15"/><line class="cls-11" x1="176.05" y1="143.67" x2="184.81" y2="139.1"/><line class="cls-11" x1="191.58" y1="142.2" x2="184.81" y2="139.1"/><line class="cls-11" x1="200.76" y1="138.45" x2="191.58" y2="142.2"/><line class="cls-11" x1="229.11" y1="150.42" x2="200.76" y2="138.45"/><line class="cls-11" x1="203.86" y1="146.77" x2="188.23" y2="152.97"/><line class="cls-11" x1="176.97" y1="125.09" x2="161.72" y2="131.84"/><line class="cls-11" x1="209.3" y1="101.73" x2="165.67" y2="120.2"/><line class="cls-11" x1="216.77" y1="114.01" x2="234.12" y2="120.91"/><line class="cls-11" x1="246.85" y1="150.42" x2="234.12" y2="120.91"/><line class="cls-11" x1="249.3" y1="129.34" x2="242.02" y2="115.92"/><line class="cls-11" x1="224.81" y1="108.81" x2="242.02" y2="115.92"/><line class="cls-11" x1="176.16" y1="101.73" x2="203.83" y2="90.42"/><line class="cls-11" x1="218" y1="55.34" x2="203.83" y2="90.42"/><line class="cls-11" x1="216.25" y1="48.73" x2="203.83" y2="78.27"/><line class="cls-11" x1="176.43" y1="88.52" x2="203.83" y2="78.27"/><line class="cls-11" x1="203.83" y1="41.23" x2="192.64" y2="73.82"/><line class="cls-11" x1="180.07" y1="78.27" x2="192.64" y2="73.82"/><line class="cls-11" x1="184.95" y1="66.94" x2="197.23" y2="60.46"/><line class="cls-11" x1="223.4" y1="57.53" x2="215.71" y2="76.05"/><line class="cls-11" x1="226.01" y1="100.26" x2="215.71" y2="76.05"/><line class="cls-11" x1="247.93" y1="108.81" x2="226.01" y2="100.26"/><line class="cls-11" x1="228.93" y1="66.79" x2="226.01" y2="73.42"/><line class="cls-11" x1="234.12" y1="91.62" x2="226.01" y2="73.42"/><polygon class="cls-4" points="95.89 240.01 88.52 243.25 87.62 241.96 89.97 240.01 89.97 237.82 88.52 237.26 88.52 235.3 89.57 234.5 91.76 234.99 91.76 236.53 91.19 237.26 92.81 238.88 95.56 238.88 95.89 240.01"/><polygon class="cls-4" points="62.44 221.88 64.22 228.48 61.43 228.48 58 220.23 58.51 217.82 58 215.53 59.01 214.64 59.65 216.8 60.28 216.8 61.81 212.87 68.66 216.93 71.33 226.32 68.53 227.34 66.12 220.67 63.46 220.1 62.44 221.88"/><circle class="cls-4" cx="88.31" cy="184.8" r="5.69"/><polygon class="cls-4" points="88.89 192.19 91.41 197.08 93.52 196.35 92.41 190.78 88.89 192.19"/><line class="cls-5" x1="86.26" y1="190.78" x2="84.58" y2="194.49"/><line class="cls-5" x1="82.19" y1="189.19" x2="79.46" y2="191.48"/><line class="cls-5" x1="80.82" y1="184.8" x2="78.13" y2="184.8"/><line class="cls-5" x1="82.62" y1="180.27" x2="80.43" y2="179.12"/><line class="cls-5" x1="86.43" y1="178.06" x2="85.42" y2="175.77"/><line class="cls-5" x1="90.79" y1="177.8" x2="92.08" y2="175.15"/><line class="cls-5" x1="93.99" y1="188.22" x2="97.12" y2="190.34"/><path class="cls-4" d="M42.52,163.81l.4,1.05a8.21,8.21,0,1,1-7.63,2.88l-.4-1.05A9.12,9.12,0,0,0,32.41,173a9.2,9.2,0,1,0,10.11-9.15Z"/><line class="cls-5" x1="37.67" y1="162.49" x2="41.61" y2="172.96"/><path class="cls-4" d="M78.54,158.93v3.47l-2.18-4.81,3.53-1.42s-1.74-.83-2.7-4.93a32,32,0,0,1-.51-8.86s3.85,3.66,4.62,6a32,32,0,0,1,.89,6.86l3.73-.45.64,3.47L83,156.56,82.9,161l-2.5-3.72Z"/><path class="cls-4" d="M50.49,120.13l-.72-1.89a8.85,8.85,0,0,0-2,14.62l1.07-1.72a6.85,6.85,0,0,1,1.67-11Zm3.12-2.76a8.47,8.47,0,0,0-2,.22l.74,1.9a6.08,6.08,0,0,1,1.22-.12,6.87,6.87,0,0,1,6.86,6.86,6.06,6.06,0,0,1-.12,1.21l2,.48a9.4,9.4,0,0,0,.16-1.69A8.88,8.88,0,0,0,53.61,117.37Zm0,15.72a6.75,6.75,0,0,1-3.16-.78L49.39,134a8.86,8.86,0,0,0,12.31-4.18l-2-.49A6.84,6.84,0,0,1,53.61,133.09Z"/><circle class="cls-5" cx="19.14" cy="135.87" r="6.51"/><line class="cls-5" x1="17.59" y1="130.83" x2="19.14" y2="135.87"/><line class="cls-5" x1="23.5" y1="136.54" x2="19.14" y2="135.87"/><circle class="cls-2" cx="58.88" cy="86.72" r="8.24"/><circle class="cls-5" cx="41.61" cy="173.72" r="17.02"/><circle class="cls-3" cx="41.61" cy="173.72" r="22.5"/><line class="cls-3" x1="68.87" y1="171.06" x2="64" y2="171.44"/><line class="cls-3" x1="64.66" y1="159.18" x2="60.74" y2="161.87"/><line class="cls-3" x1="56.86" y1="150.43" x2="53.97" y2="154.91"/><line class="cls-3" x1="45.11" y1="146.12" x2="44.85" y2="150.69"/><line class="cls-3" x1="33.23" y1="146.91" x2="34.66" y2="151.22"/><line class="cls-3" x1="22.39" y1="152.67" x2="25.65" y2="156.69"/><line class="cls-3" x1="15.6" y1="163.81" x2="20.6" y2="165.65"/><line class="cls-3" x1="14.29" y1="175.24" x2="19.14" y2="174.85"/><line class="cls-3" x1="18.1" y1="187.26" x2="21.32" y2="184.8"/><line class="cls-3" x1="25.65" y1="196.22" x2="28.59" y2="192.06"/><line class="cls-3" x1="37.41" y1="200.84" x2="37.69" y2="195.87"/><line class="cls-3" x1="49.39" y1="199.66" x2="48.4" y2="195.17"/><line class="cls-3" x1="60.65" y1="193.93" x2="57.26" y2="189.87"/><line class="cls-3" x1="66.44" y1="182.95" x2="62.7" y2="182.17"/><circle class="cls-3" cx="64.78" cy="220.85" r="16.91"/><line class="cls-3" x1="85.27" y1="218.86" x2="81.61" y2="219.14"/><line class="cls-3" x1="82.11" y1="209.93" x2="79.16" y2="211.95"/><line class="cls-3" x1="76.24" y1="203.35" x2="74.07" y2="206.72"/><line class="cls-3" x1="67.41" y1="200.11" x2="67.21" y2="203.55"/><line class="cls-3" x1="58.48" y1="200.7" x2="59.56" y2="203.94"/><line class="cls-3" x1="50.33" y1="205.04" x2="52.79" y2="208.06"/><line class="cls-3" x1="45.23" y1="213.41" x2="48.99" y2="214.79"/><line class="cls-3" x1="44.25" y1="222" x2="47.89" y2="221.7"/><line class="cls-3" x1="47.11" y1="231.03" x2="49.53" y2="229.18"/><line class="cls-3" x1="52.79" y1="237.76" x2="54.99" y2="234.64"/><line class="cls-3" x1="61.62" y1="241.23" x2="61.83" y2="237.5"/><line class="cls-3" x1="70.63" y1="240.35" x2="69.88" y2="236.98"/><line class="cls-3" x1="79.09" y1="236.05" x2="76.54" y2="232.99"/><line class="cls-3" x1="83.44" y1="227.79" x2="80.63" y2="227.21"/><path class="cls-3" d="M102.76,193.44A15.49,15.49,0,0,1,88.9,202a15.55,15.55,0,0,1-9-2.87,15.48,15.48,0,0,1-6.52-11.87c0-.26,0-.52,0-.78A15.51,15.51,0,0,1,88.9,171a15.42,15.42,0,0,1,8.52,2.55l.06,0Z"/><polyline class="cls-3" points="97.42 173.5 97.46 173.45 97.46 173.44"/><line class="cls-3" x1="91.31" y1="167.43" x2="91.13" y2="170.59"/><line class="cls-3" x1="83.11" y1="167.97" x2="84.1" y2="170.95"/><line class="cls-3" x1="75.63" y1="171.95" x2="77.89" y2="174.72"/><line class="cls-3" x1="70.95" y1="179.64" x2="74.4" y2="180.9"/><line class="cls-3" x1="70.05" y1="187.52" x2="73.39" y2="187.25"/><line class="cls-3" x1="72.68" y1="195.81" x2="74.9" y2="194.12"/><line class="cls-3" x1="77.89" y1="201.99" x2="79.91" y2="199.12"/><line class="cls-3" x1="85.99" y1="205.18" x2="86.19" y2="201.76"/><line class="cls-3" x1="94.26" y1="204.37" x2="93.58" y2="201.27"/><line class="cls-3" x1="102.03" y1="200.42" x2="99.7" y2="197.62"/><path class="cls-6" d="M92.23,153.76a12.06,12.06,0,0,1-23.89-1.64c0-.2,0-.4,0-.6a12.06,12.06,0,0,1,21.24-7.82Z"/><line class="cls-6" x1="88.39" y1="139.3" x2="87" y2="141.44"/><line class="cls-6" x1="82.26" y1="136.73" x2="82.12" y2="139.18"/><line class="cls-6" x1="75.89" y1="137.15" x2="76.66" y2="139.46"/><line class="cls-6" x1="70.08" y1="140.24" x2="71.83" y2="142.39"/><line class="cls-6" x1="66.44" y1="146.21" x2="69.12" y2="147.19"/><line class="cls-6" x1="65.74" y1="152.33" x2="68.34" y2="152.12"/><line class="cls-6" x1="67.78" y1="158.77" x2="69.5" y2="157.46"/><line class="cls-6" x1="71.83" y1="163.58" x2="73.4" y2="161.35"/><line class="cls-6" x1="78.13" y1="166.05" x2="78.28" y2="163.39"/><line class="cls-6" x1="84.55" y1="165.42" x2="84.02" y2="163.02"/><line class="cls-6" x1="90.59" y1="162.35" x2="88.77" y2="160.18"/><line class="cls-6" x1="92.91" y1="156.3" x2="91.69" y2="156.05"/><circle class="cls-6" cx="53.71" cy="125.81" r="16.48"/><line class="cls-6" x1="73.68" y1="123.87" x2="70.11" y2="124.14"/><line class="cls-6" x1="70.6" y1="115.17" x2="67.72" y2="117.13"/><line class="cls-6" x1="64.88" y1="108.76" x2="62.76" y2="112.04"/><line class="cls-6" x1="56.28" y1="105.6" x2="56.08" y2="108.95"/><line class="cls-6" x1="47.57" y1="106.18" x2="48.62" y2="109.33"/><line class="cls-6" x1="39.63" y1="110.4" x2="42.02" y2="113.34"/><line class="cls-6" x1="34.66" y1="118.56" x2="38.33" y2="119.9"/><line class="cls-6" x1="33.7" y1="126.93" x2="37.25" y2="126.64"/><line class="cls-6" x1="36.49" y1="135.73" x2="38.85" y2="133.93"/><line class="cls-6" x1="42.02" y1="142.29" x2="44.17" y2="139.25"/><line class="cls-6" x1="50.63" y1="145.68" x2="50.84" y2="142.04"/><line class="cls-6" x1="59.41" y1="144.81" x2="58.69" y2="141.53"/><line class="cls-6" x1="67.66" y1="140.62" x2="65.18" y2="137.65"/><line class="cls-6" x1="71.9" y1="132.57" x2="69.16" y2="132"/><circle class="cls-12" cx="160.52" cy="53.94" r="2.15"/><line class="cls-13" x1="163.91" y1="53.68" x2="163.31" y2="53.73"/><line class="cls-13" x1="163.4" y1="52.23" x2="162.92" y2="52.56"/><line class="cls-13" x1="162.44" y1="51.16" x2="162.09" y2="51.71"/><line class="cls-13" x1="161.01" y1="50.63" x2="160.98" y2="51.19"/><line class="cls-13" x1="159.56" y1="50.73" x2="159.73" y2="51.25"/><line class="cls-13" x1="158.23" y1="51.43" x2="158.63" y2="51.92"/><line class="cls-13" x1="157.4" y1="52.79" x2="158.01" y2="53.02"/><line class="cls-13" x1="157.24" y1="54.19" x2="157.84" y2="54.14"/><line class="cls-13" x1="157.71" y1="55.66" x2="158.1" y2="55.36"/><line class="cls-13" x1="158.63" y1="56.75" x2="158.99" y2="56.24"/><line class="cls-13" x1="160.07" y1="57.32" x2="160.1" y2="56.71"/><line class="cls-13" x1="161.53" y1="57.17" x2="161.41" y2="56.62"/><line class="cls-13" x1="162.91" y1="56.47" x2="162.49" y2="55.98"/><line class="cls-13" x1="163.61" y1="55.13" x2="163.16" y2="55.04"/><circle class="cls-6" cx="18.37" cy="135.98" r="10.82"/><line class="cls-6" x1="31.49" y1="134.7" x2="29.14" y2="134.88"/><line class="cls-6" x1="29.46" y1="128.99" x2="27.58" y2="130.28"/><line class="cls-6" x1="25.71" y1="124.78" x2="24.32" y2="126.94"/><line class="cls-6" x1="20.06" y1="122.71" x2="19.93" y2="124.91"/><line class="cls-6" x1="14.34" y1="123.08" x2="15.03" y2="125.16"/><line class="cls-6" x1="9.13" y1="125.86" x2="10.7" y2="127.79"/><line class="cls-6" x1="5.86" y1="131.22" x2="8.27" y2="132.1"/><line class="cls-6" x1="5.23" y1="136.71" x2="7.57" y2="136.52"/><line class="cls-6" x1="7.07" y1="142.49" x2="8.61" y2="141.31"/><line class="cls-6" x1="10.7" y1="146.8" x2="12.11" y2="144.8"/><line class="cls-6" x1="16.35" y1="149.02" x2="16.49" y2="146.64"/><line class="cls-6" x1="22.12" y1="148.46" x2="21.64" y2="146.3"/><line class="cls-6" x1="27.53" y1="145.7" x2="25.9" y2="143.75"/><line class="cls-6" x1="30.32" y1="140.42" x2="28.52" y2="140.05"/><circle class="cls-6" cx="24.04" cy="101.03" r="14.42"/><line class="cls-6" x1="41.51" y1="99.33" x2="38.38" y2="99.57"/><line class="cls-6" x1="38.81" y1="91.72" x2="36.3" y2="93.44"/><line class="cls-6" x1="33.81" y1="86.11" x2="31.96" y2="88.99"/><line class="cls-6" x1="26.28" y1="83.35" x2="26.11" y2="86.28"/><line class="cls-6" x1="18.67" y1="83.86" x2="19.59" y2="86.62"/><line class="cls-6" x1="11.72" y1="87.55" x2="13.81" y2="90.13"/><line class="cls-6" x1="7.37" y1="94.69" x2="10.58" y2="95.86"/><line class="cls-6" x1="6.54" y1="102.01" x2="9.64" y2="101.76"/><line class="cls-6" x1="8.98" y1="109.71" x2="11.04" y2="108.14"/><line class="cls-6" x1="13.81" y1="115.45" x2="15.69" y2="112.79"/><line class="cls-6" x1="21.34" y1="118.41" x2="21.53" y2="115.23"/><line class="cls-6" x1="29.02" y1="117.66" x2="28.39" y2="114.78"/><line class="cls-6" x1="36.24" y1="113.99" x2="34.07" y2="111.39"/><line class="cls-6" x1="39.95" y1="106.95" x2="37.55" y2="106.45"/><line class="cls-7" x1="74.43" y1="86.72" x2="58.88" y2="86.72"/><polygon class="cls-4" points="14.69 96.68 17.24 103.96 29.63 99.45 26.86 92.58 14.69 96.68"/><polygon class="cls-4" points="17.42 104.63 17.42 110.4 33.64 104.26 29.94 100.32 17.42 104.63"/><path class="cls-6" d="M75,88.7a16.44,16.44,0,0,1-16.31,14.5,16.81,16.81,0,0,1-2.86-.25A16.42,16.42,0,0,1,42.26,87.61c0-.27,0-.54,0-.82a16.42,16.42,0,0,1,29.63-9.74Z"/><line class="cls-6" x1="69.78" y1="69.8" x2="67.67" y2="73.07"/><line class="cls-6" x1="61.21" y1="66.66" x2="61.02" y2="69.99"/><line class="cls-6" x1="52.54" y1="67.23" x2="53.59" y2="70.37"/><line class="cls-6" x1="44.63" y1="71.44" x2="47.01" y2="74.37"/><line class="cls-6" x1="39.68" y1="79.56" x2="43.33" y2="80.9"/><line class="cls-6" x1="38.72" y1="87.9" x2="42.26" y2="87.61"/><line class="cls-6" x1="41.5" y1="96.67" x2="43.85" y2="94.88"/><line class="cls-6" x1="47.01" y1="103.2" x2="49.15" y2="100.17"/><line class="cls-6" x1="55.59" y1="106.57" x2="55.79" y2="102.95"/><line class="cls-6" x1="64.33" y1="105.72" x2="63.61" y2="102.44"/><line class="cls-6" x1="72.54" y1="101.54" x2="70.07" y2="98.58"/><line class="cls-6" x1="76.76" y1="93.52" x2="74.04" y2="92.96"/><circle class="cls-5" cx="91.21" cy="239.4" r="8.29"/><path class="cls-14" d="M110.44,222.37a9.73,9.73,0,0,1-5.62,4.59h0a10,10,0,0,1-3,.45,9.63,9.63,0,0,1-1.71-.15,9.82,9.82,0,0,1-8.08-9.16c0-.16,0-.33,0-.5A9.81,9.81,0,0,1,107,209.23Z"/><line class="cls-14" x1="103.39" y1="205.59" x2="103.27" y2="207.58"/><line class="cls-14" x1="98.21" y1="205.93" x2="98.83" y2="207.81"/><line class="cls-14" x1="93.49" y1="208.45" x2="94.91" y2="210.2"/><line class="cls-14" x1="90.53" y1="213.3" x2="92.71" y2="214.1"/><line class="cls-14" x1="89.96" y1="218.28" x2="92.07" y2="218.11"/><line class="cls-14" x1="91.62" y1="223.51" x2="93.02" y2="222.45"/><line class="cls-14" x1="94.91" y1="227.42" x2="96.19" y2="225.61"/><line class="cls-14" x1="100.03" y1="229.43" x2="100.15" y2="227.27"/><line class="cls-14" x1="105.25" y1="228.92" x2="104.82" y2="226.96"/><line class="cls-14" x1="110.16" y1="226.42" x2="108.68" y2="224.65"/><circle class="cls-5" cx="113.31" cy="186.91" r="7.04"/><circle class="cls-5" cx="131.55" cy="168.04" r="11.41"/><circle class="cls-5" cx="126.98" cy="109.75" r="25.91"/><circle class="cls-5" cx="86.65" cy="67.08" r="13.15"/><circle class="cls-5" cx="154.28" cy="53.18" r="16.34"/><circle class="cls-5" cx="86.35" cy="38.28" r="2.45"/><circle class="cls-5" cx="125.71" cy="25.46" r="2.11"/><circle class="cls-5" cx="151" cy="29.12" r="2.46"/><polygon class="cls-4" points="122.82 36.5 121.15 33.05 125.71 30.68 127.4 34.18 129.34 34.34 133.17 41.62 132.25 42.16 130.63 39.46 129.02 40.43 130.8 44.48 131.28 45.34 130.2 45.82 128.21 43.02 129.13 46.26 127.82 47.12 125.71 41.89 123.92 42.43 123.92 45.66 122.39 45.61 121.47 38.17 122.82 36.5"/><line class="cls-5" x1="123.61" y1="25.85" x2="110.97" y2="31.22"/><line class="cls-5" x1="148.54" y1="29.79" x2="133.17" y2="36.38"/><line class="cls-5" x1="142.28" y1="34.64" x2="133.58" y2="38.21"/><path class="cls-4" d="M97.24,33.08l3.48-.91A13.44,13.44,0,0,1,102,28.54a25.43,25.43,0,0,1,4-3.79s.92,3,0,5a9.08,9.08,0,0,1-2.75,3.29l.55,4.21Z"/><line class="cls-5" x1="175.9" y1="40.75" x2="169.02" y2="44.03"/><line class="cls-5" x1="173.75" y1="44.13" x2="170.09" y2="45.96"/><line class="cls-5" x1="183.22" y1="58.54" x2="170.63" y2="64.39"/><line class="cls-5" x1="177.4" y1="62.87" x2="170.63" y2="65.95"/><line class="cls-5" x1="167" y1="63.7" x2="170.63" y2="65.95"/><line class="cls-5" x1="148.36" y1="69.52" x2="140.2" y2="87.47"/><line class="cls-5" x1="105.13" y1="38.9" x2="122.29" y2="83.85"/><path class="cls-5" d="M119.45,85c-8.16-20-11.83-29.18-11.83-29.18s-1.7-2.38-4.06-1.78a10.18,10.18,0,0,0-3.76,1.78"/><line class="cls-6" x1="125.71" y1="63.77" x2="120.95" y2="69.78"/><line class="cls-6" x1="126.98" y1="83.85" x2="121.15" y2="68.8"/><line class="cls-5" x1="129.37" y1="50.99" x2="123.61" y2="53.7"/><line class="cls-5" x1="137.93" y1="86.27" x2="139.98" y2="79.23"/><line class="cls-5" x1="129.37" y1="50.99" x2="139.98" y2="79.23"/><line class="cls-5" x1="154.87" y1="75.17" x2="147.87" y2="77.79"/><line class="cls-5" x1="143.15" y1="89.52" x2="147.87" y2="77.79"/><line class="cls-6" x1="160.99" y1="71.08" x2="164.9" y2="82.33"/><line class="cls-6" x1="146.11" y1="92.28" x2="161.47" y2="85.99"/><line class="cls-6" x1="164.9" y1="82.33" x2="161.47" y2="85.99"/><line class="cls-5" x1="106.44" y1="78.07" x2="111.29" y2="89.14"/><line class="cls-5" x1="162.27" y1="90.3" x2="149.67" y2="95.44"/><line class="cls-5" x1="173.06" y1="89.14" x2="150.62" y2="98.63"/><line class="cls-6" x1="172.46" y1="93.88" x2="152.2" y2="101.73"/><line class="cls-5" x1="169.94" y1="100.06" x2="152.88" y2="107.28"/><line class="cls-5" x1="104.35" y1="85.85" x2="107.99" y2="92.13"/><line class="cls-6" x1="74.43" y1="85.85" x2="104.78" y2="96.39"/><line class="cls-5" x1="76.98" y1="89.74" x2="103.48" y2="98.83"/><line class="cls-5" x1="77.82" y1="92.58" x2="102.85" y2="100.32"/><line class="cls-5" x1="79.21" y1="96.45" x2="101.79" y2="103.67"/><line class="cls-5" x1="79.34" y1="98.27" x2="101.45" y2="105.36"/><line class="cls-5" x1="133.98" y1="71.86" x2="137.17" y2="78.93"/><line class="cls-5" x1="136.37" y1="84.96" x2="137.11" y2="78.5"/><line class="cls-5" x1="76.02" y1="43.95" x2="81.26" y2="55.08"/><line class="cls-5" x1="76.02" y1="50.62" x2="79.22" y2="56.23"/><line class="cls-5" x1="75.4" y1="54.17" x2="77.62" y2="57.53"/><line class="cls-5" x1="85.26" y1="40.73" x2="81.08" y2="49.6"/><line class="cls-5" x1="83.17" y1="54" x2="81.08" y2="49.6"/><line class="cls-5" x1="76.51" y1="66.78" x2="92.63" y2="60.41"/><line class="cls-5" x1="77.62" y1="68.8" x2="93.93" y2="62.43"/><line class="cls-5" x1="78.64" y1="70.37" x2="93.78" y2="64.41"/><line class="cls-5" x1="79.8" y1="71.92" x2="95.68" y2="65.79"/><line class="cls-5" x1="80.68" y1="74.45" x2="95.95" y2="68.12"/><line class="cls-5" x1="88.9" y1="73.35" x2="82.18" y2="76.4"/><circle class="cls-4" cx="75.99" cy="43.07" r="1.99"/><circle class="cls-4" cx="127.82" cy="62.18" r="2.95"/><circle class="cls-5" cx="156.95" cy="74.25" r="2.25"/><circle class="cls-4" cx="163.52" cy="89.69" r="1.3"/><circle class="cls-4" cx="106.17" cy="76.78" r="2.42"/><circle class="cls-4" cx="103.3" cy="84.5" r="1.74"/><polygon class="cls-6" points="108.59 103.67 115.63 122.65 144.28 111.67 136.74 92.87 108.59 103.67"/><line class="cls-6" x1="114.29" y1="127.92" x2="148.93" y2="114.21"/><path class="cls-4" d="M84.44,111.43l2.69-1.68s.22-2.54,1.46-3.34,1.38-1.09,2.54-.66a5,5,0,0,1,2,1.53l.44.48s2.11-.84,2.84,0,1.52,1.68.8,2.64a11.29,11.29,0,0,1-4.59,3.36c-1.75.51-4.37,1.53-5.39,1.53h-2Z"/><line class="cls-5" x1="102" y1="116.63" x2="94.52" y2="119.61"/><line class="cls-5" x1="103.96" y1="121.66" x2="87.7" y2="128.46"/><line class="cls-5" x1="105.34" y1="124.01" x2="88.07" y2="130.79"/><line class="cls-5" x1="111.36" y1="130.43" x2="89.58" y2="138.3"/><path class="cls-6" d="M114.08,132.22c-14.75,5.5-15.82,6.51-15.82,6.51a5,5,0,0,0-1.56,6.59,63.85,63.85,0,0,1,2.74,6.91c.11,0,1.64,2.7-3.37,5.27"/><polygon class="cls-4" points="121.57 142.38 129.5 139.13 131.55 144.31 123.92 147.67 121.57 142.38"/><line class="cls-5" x1="121.55" y1="135.09" x2="115.42" y2="138.3"/><line class="cls-5" x1="123.38" y1="160.09" x2="115.42" y2="138.3"/><line class="cls-5" x1="121.57" y1="162.53" x2="117.54" y2="153.82"/><path class="cls-6" d="M135.48,134.36c3.08,7.94,2.85,8.67,2.85,8.67s-.11,2.29-6.14,5.09-6.48,3.4-6.48,3.4-.76,3.25,0,4.78"/><circle class="cls-4" cx="116.87" cy="152.23" r="1.88"/><line class="cls-5" x1="157.89" y1="107.76" x2="168.18" y2="102.96"/><line class="cls-5" x1="151.5" y1="118.12" x2="162.22" y2="120.2"/><line class="cls-5" x1="149.62" y1="124.53" x2="160.8" y2="127.4"/><line class="cls-5" x1="145.95" y1="127.4" x2="151.41" y2="128.46"/><line class="cls-5" x1="157.28" y1="142.38" x2="151.41" y2="128.46"/><line class="cls-5" x1="142.96" y1="130.79" x2="151.75" y2="152.97"/><line class="cls-5" x1="144.28" y1="129.65" x2="147.95" y2="139.13"/><line class="cls-5" x1="140.86" y1="131.62" x2="145.51" y2="143.76"/><polygon class="cls-4" points="150.63 155.04 148.06 152.39 147.35 158.62 144.28 159.29 146.94 165.43 150.63 155.04"/><polygon class="cls-4" points="128.83 176.91 125.71 169.01 126.98 168.04 126.44 163.58 128.83 161.26 131.85 161.26 134.2 162.46 134.98 165.43 136.88 164.72 139.56 172.26 128.83 176.91"/><polygon class="cls-15" points="128.05 166.66 133.42 164.63 132.19 162.79 129.84 162.79 128.05 163.43 128.05 164.63 128.05 166.66"/><path class="cls-4" d="M108.59,158.12c-1.1-1.73-4.9-1.79-5.35-1.48s-3.3,2-2.38,4.62,1.47,5.61,4.21,5.4,6.33-1.87,6.33-2.44a9.58,9.58,0,0,0-.9-2.3s-1.34.92-2.68,1.66-2.25,1-2.75.64-1.61-.62-1.72-1.82-.45-3.09.22-3.49,3.36.06,3.69,0A6.88,6.88,0,0,0,108.59,158.12Z"/><path class="cls-4" d="M112.18,186.47v-3.15l1.9,2.13,2.24-.65L115,186.47l1.87,2.22h-2.79l-.77,2.09c-.26-.93-.53-1.87-.8-2.8l-2.07-.59Z"/><line class="cls-5" x1="123.92" y1="184.8" x2="127" y2="191.5"/><line class="cls-5" x1="128.34" y1="188.15" x2="123.92" y2="184.8"/><ellipse class="cls-4" cx="125.46" cy="192.07" rx="1.98" ry="1.13" transform="translate(-68.84 70.1) rotate(-24.73)"/><line class="cls-5" x1="115.36" y1="167.52" x2="100.68" y2="173.44"/><circle class="cls-4" cx="104.32" cy="177.6" r="1.95"/><circle class="cls-4" cx="135.48" cy="190.78" r="1.84"/><line class="cls-5" x1="131.55" y1="179.87" x2="135.48" y2="190.78"/><line class="cls-5" x1="133.64" y1="179.12" x2="136.44" y2="185.33"/><line class="cls-5" x1="138.34" y1="177.2" x2="140.84" y2="184.35"/><line class="cls-6" x1="94.73" y1="133.51" x2="98.26" y2="131.78"/><line class="cls-6" x1="102.09" y1="130.61" x2="105.07" y2="129.04"/><line class="cls-6" x1="157.73" y1="113.76" x2="161.41" y2="115.23"/><circle class="cls-6" cx="247.25" cy="53.57" r="8.17"/><circle class="cls-6" cx="279.06" cy="70.1" r="8.35"/><circle class="cls-4" cx="247.25" cy="53.57" r="5.35"/><circle class="cls-4" cx="279.06" cy="70.1" r="5.35"/><path class="cls-4" d="M265.57,22.1s5.06-7.5,11.17-6.93,11.6,3.4,12.67,4.81,5.88,7.36,5.88,7.78.43,9.42,0,10.37S265.57,22.1,265.57,22.1Z"/><path class="cls-16" d="M246.73,75c4.7,7.56,6.52,8.3,14.64,6.79"/><circle class="cls-17" cx="148.83" cy="52.67" r="4.25"/><line class="cls-18" x1="155.52" y1="52.16" x2="154.34" y2="52.25"/><line class="cls-18" x1="154.5" y1="49.3" x2="153.55" y2="49.94"/><line class="cls-18" x1="152.62" y1="47.19" x2="151.92" y2="48.27"/><line class="cls-18" x1="149.79" y1="46.15" x2="149.72" y2="47.25"/><line class="cls-18" x1="146.92" y1="46.34" x2="147.27" y2="47.38"/><line class="cls-18" x1="144.31" y1="47.73" x2="145.1" y2="48.7"/><line class="cls-18" x1="142.67" y1="50.41" x2="143.88" y2="50.85"/><line class="cls-18" x1="142.36" y1="53.17" x2="143.53" y2="53.07"/><line class="cls-18" x1="143.28" y1="56.06" x2="144.05" y2="55.47"/><line class="cls-18" x1="145.1" y1="58.22" x2="145.8" y2="57.22"/><line class="cls-18" x1="147.93" y1="59.34" x2="148" y2="58.14"/><line class="cls-18" x1="150.82" y1="59.05" x2="150.58" y2="57.97"/><line class="cls-18" x1="153.53" y1="57.67" x2="152.72" y2="56.69"/><line class="cls-18" x1="154.93" y1="55.02" x2="154.03" y2="54.84"/></g></g></svg>